<svg width="164" height="147" xmlns="http://www.w3.org/2000/svg" xmlns:xlink="http://www.w3.org/1999/xlink" overflow="hidden"><defs><clipPath id="clip0"><rect x="3983" y="2974" width="164" height="147"/></clipPath><linearGradient x1="20.1176" y1="23.4733" x2="126.922" y2="123.566" gradientUnits="userSpaceOnUse" spreadMethod="pad" id="fill1"><stop offset="0"/><stop offset="1" stop-color="#FFFFFF"/></linearGradient><linearGradient x1="129.714" y1="119.957" x2="17.3268" y2="27.0834" gradientUnits="userSpaceOnUse" spreadMethod="pad" id="fill2"><stop offset="0"/><stop offset="1" stop-color="#FFFFFF"/></linearGradient></defs><g clip-path="url(#clip0)" transform="translate(-3983 -2974)"><path d="M73.3754 109.423C105.897 153.757 137.725 97.0487 137.678 62.9464 137.622 22.6258 96.7559 0.0910757 73.349 0.0910757 35.7791 0.0910757 0 31.1412 0 73.624 0 120.844 41.0133 147 73.349 147 66.0317 145.946 41.6464 140.721 41.3187 84.5554 41.0983 46.5683 53.7104 31.3916 73.2962 38.0677 73.7349 38.2303 94.8994 46.5794 94.8994 73.8537 94.8994 101.011 73.3754 109.423 73.3754 109.423L73.3754 109.423Z" fill="url(#fill1)" transform="matrix(1.11565 0 0 1 3983 2974)"/><path d="M73.3375 38.037C51.848 30.6301 25.5231 48.3415 25.5231 83.817 25.5231 141.742 68.4474 147 73.651 147 111.221 147 147 115.95 147 73.4673 147 26.247 105.986 0.0910757 73.651 0.0910757 82.6071-1.14924 121.923 9.78383 121.923 63.5184 121.923 98.5606 92.5664 117.637 73.4724 109.487 73.0337 109.324 51.8688 100.975 51.8688 73.701 51.8688 46.5429 73.3375 38.037 73.3375 38.037L73.3375 38.037Z" fill="url(#fill2)" transform="matrix(1.11565 0 0 1 3983 2974)"/></g></svg>